<svg width="208" height="37" viewBox="0 0 50 37" fill="none" xmlns="http://www.w3.org/2000/svg">
<g clip-path="url(#clip0_2_27)">
<path d="M52.5105 6.00278C52.5105 4.55288 52.5105 3.10298 52.4877 1.65559C52.4725 0.732475 52.0488 0.245831 51.161 0.0978305C50.7881 0.0351186 50.4076 0 50.0297 0C34.5868 0 19.1388 0.00752542 3.69332 0.0225763C3.21643 0.0225763 2.73448 0.122915 2.26013 0.203186C1.7249 0.296 1.38753 0.64217 1.31397 1.16142C1.23026 1.74841 1.18207 2.34542 1.17953 2.93742C1.16685 6.43173 1.17953 9.92353 1.17446 13.4178C1.16938 18.8286 1.1567 24.2394 1.15163 29.6502C1.15163 30.493 1.15416 31.3334 1.17446 32.1737C1.18968 32.7682 1.20236 32.7682 1.79085 32.7682C10.1287 32.7682 26.8044 32.7782 26.8044 32.7833H51.3462C52.1258 32.7833 52.5156 32.3869 52.5156 31.5942C52.5156 23.0654 52.5156 14.5341 52.5105 6.00529V6.00278ZM26.9059 0.647186C27.1773 0.647186 27.3955 0.865424 27.3955 1.13132C27.3955 1.39722 27.1773 1.61546 26.9059 1.61546C26.6345 1.61546 26.4163 1.39973 26.4163 1.13132C26.4163 0.862915 26.6345 0.647186 26.9059 0.647186ZM50.7577 30.8818C50.5928 30.8919 3.92922 30.9044 3.30014 30.932C2.92979 30.9471 2.83848 30.8191 2.84101 30.4679C2.84862 26.5723 2.84101 22.6766 2.83848 18.7784C2.83594 13.3827 2.83848 7.98447 2.82072 2.58624C2.82072 2.20495 2.99828 2.20997 3.27477 2.20997C11.0622 2.22251 18.8521 2.23003 26.6395 2.23756C34.4929 2.24258 42.3463 2.24508 50.2022 2.2501H50.7602V30.8793L50.7577 30.8818Z" fill="#E7342F"/>
<path d="M0 34.2231C0.00760985 34.3736 0.0101465 34.474 0.0228295 34.5768C0.175027 35.979 0.771131 36.6689 2.06988 36.9022C2.44022 36.9699 2.82579 36.99 3.20375 36.99C18.9232 36.9975 34.6451 37 50.3671 37C50.7323 37 51.1001 36.9749 51.4629 36.9348C52.579 36.8119 53.241 36.255 53.5125 35.2039C53.5936 34.8929 53.6291 34.5718 53.69 34.2231H0ZM35.0129 36.1296H18.6517V35.3319H35.0129V36.1296Z" fill="#E7342F"/>
<path d="M38.3638 19.4106C37.9757 19.0268 37.4278 19.0468 37.027 19.4532C36.9382 19.5435 36.8215 19.674 36.7175 19.674C35.6242 19.689 34.5284 19.684 33.425 19.684V17.9757C33.8562 17.9757 34.2545 17.9531 34.6476 17.9857C34.8151 18.0008 35.0078 18.0961 35.1321 18.214C35.5253 18.5903 36.0707 18.6329 36.4436 18.2792C36.8164 17.9281 36.8139 17.3361 36.436 16.9874C36.058 16.6362 35.5177 16.6738 35.1321 17.0727C35.0434 17.163 34.9317 17.2909 34.8252 17.2959C34.3585 17.321 33.8892 17.306 33.4148 17.306V15.5952C33.8207 15.5952 34.2012 15.5701 34.5741 15.6052C34.7745 15.6253 35.0028 15.7106 35.1474 15.8435C35.5456 16.2072 36.0783 16.2449 36.4588 15.8811C36.8038 15.5525 36.7987 14.9555 36.4461 14.6194C36.0631 14.2556 35.5329 14.2807 35.1423 14.6746C35.0535 14.7649 34.9419 14.8928 34.8328 14.8978C34.3661 14.9229 33.8968 14.9079 33.4098 14.9079V13.1946C33.8106 13.1946 34.1911 13.167 34.5665 13.2071C34.7643 13.2272 34.9952 13.3175 35.1372 13.4504C35.5329 13.8167 36.0783 13.8593 36.4461 13.5056C36.8012 13.162 36.8088 12.595 36.4588 12.2439C36.0986 11.8826 35.5253 11.9002 35.1499 12.279C35.0611 12.3693 34.9596 12.5148 34.8556 12.5198C34.3762 12.5449 33.8943 12.5298 33.3996 12.5298C33.3438 11.7447 33.5315 10.9721 32.9177 10.37C32.3013 9.76548 31.4972 9.97117 30.7565 9.90094C30.7489 9.74039 30.7387 9.63755 30.7387 9.5347C30.7387 9.21863 30.7184 8.90006 30.7489 8.58399C30.759 8.45606 30.8503 8.31307 30.9467 8.22026C31.3754 7.81389 31.4211 7.28961 31.0456 6.90331C30.6956 6.5446 30.1299 6.53456 29.7773 6.88324C29.3968 7.257 29.4273 7.81138 29.8433 8.20521C29.927 8.28297 30.0538 8.37578 30.0564 8.46609C30.0767 8.94019 30.0665 9.4168 30.0665 9.88338H28.3721C28.3568 9.80812 28.3416 9.76297 28.3416 9.72033C28.3391 9.37416 28.3162 9.02297 28.3492 8.68182C28.3644 8.51124 28.4558 8.3206 28.5775 8.19768C28.9758 7.7888 29.0062 7.2545 28.613 6.8707C28.2655 6.53206 27.6846 6.54961 27.3422 6.91083C26.9896 7.28209 27.0302 7.82894 27.4284 8.20019C27.5223 8.28799 27.6542 8.39585 27.6593 8.50121C27.6846 8.96277 27.6694 9.42684 27.6694 9.8909H25.9369C25.9369 8.91511 25.9445 7.96941 25.9318 7.02121C25.9293 6.73775 25.9724 6.52704 26.2159 6.32134C26.5888 6.00528 26.5685 5.45592 26.2388 5.10473C25.9268 4.77361 25.3966 4.73348 25.0339 5.01443C24.6559 5.30792 24.5189 5.90995 24.8741 6.21097C25.2875 6.55965 25.2368 6.9585 25.2368 7.37992C25.2393 8.07477 25.2419 8.76711 25.2368 9.46195C25.2368 9.60494 25.219 9.74792 25.2114 9.88087H23.5043C23.5043 9.46948 23.4789 9.09321 23.5144 8.72195C23.5322 8.54134 23.6235 8.33063 23.7503 8.2027C24.1258 7.82392 24.1714 7.27206 23.8188 6.90833C23.4688 6.54711 22.898 6.53456 22.548 6.87822C22.1751 7.24446 22.1852 7.78629 22.5708 8.16758C22.6647 8.26039 22.8118 8.36073 22.8169 8.46358C22.8422 8.94019 22.8295 9.4168 22.8295 9.90846C22.0305 9.94358 21.2568 9.78555 20.6481 10.3876C20.0317 10.9946 20.2397 11.7898 20.1712 12.4922C20.0824 12.5148 20.0545 12.5298 20.0266 12.5298C19.1109 12.5323 18.1951 12.5298 17.2794 12.5399C16.9953 12.5424 16.7797 12.5072 16.5692 12.2639C16.2369 11.8751 15.6636 11.8952 15.3085 12.2464C14.9534 12.595 14.9534 13.1645 15.311 13.5031C15.6661 13.8392 16.2521 13.8493 16.5768 13.468C16.7721 13.2397 16.97 13.1845 17.2439 13.1921C17.8705 13.2046 18.4945 13.1971 19.121 13.1971H20.1585V14.9079C19.7222 14.9079 19.3113 14.9279 18.9029 14.8978C18.7456 14.8853 18.563 14.7975 18.4513 14.6871C18.0379 14.2807 17.5027 14.2481 17.1145 14.6369C16.7645 14.9856 16.7772 15.5651 17.1399 15.8937C17.5458 16.2624 18.0734 16.2198 18.4742 15.7933C18.5503 15.7131 18.6543 15.6077 18.7507 15.6052C19.2149 15.5851 19.6841 15.5952 20.1585 15.5952V17.3085C19.8135 17.3085 19.4939 17.3009 19.1768 17.311C18.8496 17.321 18.5858 17.2884 18.3448 16.9924C18.048 16.6262 17.4545 16.6763 17.1196 17.0125C16.7823 17.3536 16.7746 17.9005 17.1044 18.2366C17.4621 18.6053 17.9973 18.6179 18.3752 18.2717C18.4919 18.1639 18.6162 17.9983 18.7456 17.9883C19.2098 17.9531 19.6816 17.9757 20.1585 17.9757V19.6238C20.1078 19.6464 20.0824 19.6689 20.0545 19.6714C19.6892 19.679 19.3189 19.7041 18.9561 19.674C18.7836 19.6614 18.5858 19.5761 18.464 19.4557C18.0582 19.0594 17.5103 19.0167 17.1196 19.388C16.7645 19.7266 16.767 20.2961 17.1247 20.6447C17.5052 21.016 18.0607 20.9784 18.459 20.562C18.5452 20.4716 18.667 20.3613 18.776 20.3563C19.2276 20.3337 19.6816 20.3462 20.1636 20.3462C20.2295 21.1163 20.0367 21.8864 20.6354 22.491C21.2492 23.1131 22.0508 22.9074 22.827 22.9776C22.827 23.3439 22.8143 23.6725 22.8295 24.0011C22.8448 24.3121 22.7966 24.5529 22.5226 24.7787C22.1497 25.0872 22.1878 25.6667 22.5277 25.9928C22.8879 26.339 23.4536 26.339 23.8036 25.9928C24.1511 25.6466 24.141 25.0847 23.7833 24.7335C23.6895 24.6407 23.5195 24.5529 23.5144 24.4551C23.4865 23.966 23.5017 23.4743 23.5017 22.9952H25.1937C25.2064 23.0754 25.219 23.1206 25.219 23.1658C25.2216 23.5144 25.2469 23.8631 25.2114 24.2068C25.1962 24.3748 25.1024 24.568 24.9831 24.6884C24.5976 25.0847 24.557 25.614 24.9197 25.9828C25.2672 26.3365 25.8405 26.3465 26.1956 26.0053C26.5761 25.6391 26.5482 25.0697 26.1398 24.6809C26.0587 24.6031 25.9344 24.5078 25.9318 24.4175C25.9115 23.9434 25.9217 23.4668 25.9217 22.9927H27.6491C27.6491 23.8982 27.6415 24.7712 27.6542 25.6441C27.6567 25.9702 27.6339 26.2336 27.3371 26.4744C26.9668 26.7754 27.0048 27.3524 27.3371 27.691C27.6719 28.0272 28.2249 28.0397 28.5775 27.7211C28.9403 27.39 29.0214 26.8231 28.646 26.5171C28.296 26.2336 28.3162 25.9175 28.3162 25.5613C28.3188 24.7085 28.3162 23.8531 28.3162 22.9826H30.0462C30.0462 23.4266 30.0665 23.833 30.0361 24.2344C30.0259 24.3874 29.9321 24.563 29.8205 24.6733C29.4121 25.0747 29.3689 25.614 29.7469 26.0003C30.0817 26.344 30.6804 26.3415 31.0228 25.9953C31.3881 25.6266 31.345 25.0571 30.934 24.6708C30.8453 24.5881 30.7362 24.4676 30.7311 24.3598C30.7083 23.9133 30.721 23.4618 30.721 22.9826C31.4946 22.9124 32.2861 23.1206 32.9101 22.496C33.529 21.8764 33.2829 21.0862 33.3869 20.3512C34.5081 20.3512 35.576 20.3437 36.6414 20.3613C36.7606 20.3613 36.8976 20.4842 36.994 20.582C37.377 20.9683 37.9351 21.0085 38.3004 20.6623C38.6682 20.3161 38.6859 19.7517 38.3384 19.4081L38.3638 19.4106ZM35.8272 17.1354C36.0123 17.1354 36.195 17.4163 36.1392 17.6471C36.1392 17.6546 36.1366 17.6647 36.1316 17.6722C36.129 17.6797 36.124 17.6898 36.1214 17.6973C36.0707 17.8252 35.9464 17.9556 35.7967 17.9431C35.784 17.9456 35.7663 17.9431 35.746 17.9331C35.6471 17.903 35.576 17.8127 35.538 17.7249C35.5228 17.6948 35.5126 17.6672 35.5126 17.6446C35.467 17.4088 35.6445 17.1354 35.8272 17.1354ZM35.5126 15.2415C35.5126 15.2214 35.5202 15.1988 35.5329 15.1738C35.5329 15.1738 35.5329 15.1712 35.5355 15.1687C35.571 15.0734 35.6445 14.9756 35.7511 14.948C35.7688 14.938 35.784 14.9354 35.7967 14.938C35.9489 14.9254 36.0758 15.0634 36.124 15.1963C36.1265 15.2039 36.129 15.2114 36.1316 15.2164C36.1341 15.2264 36.1366 15.234 36.1392 15.244C36.1924 15.4773 36.0047 15.7532 35.8196 15.7507C35.6344 15.7482 35.4644 15.4698 35.5101 15.239L35.5126 15.2415ZM35.7206 12.6001H35.7232C35.7232 12.6001 35.7282 12.595 35.7333 12.5925C35.7561 12.5725 35.7815 12.5624 35.8043 12.5624C35.9997 12.5072 36.3167 12.6653 36.3218 12.8534C36.3243 13.0165 36.0884 13.1795 35.8728 13.1695C35.8678 13.1695 35.8627 13.1695 35.8576 13.1695C35.68 13.1544 35.4873 13.0165 35.4923 12.871C35.4974 12.7255 35.7003 12.6126 35.7232 12.6001H35.7206ZM15.9731 13.1795C15.9731 13.1795 15.9579 13.1795 15.9502 13.177C15.793 13.1494 15.6027 13.014 15.6154 12.8434C15.6256 12.7004 15.7727 12.6051 15.902 12.5725H15.9046C15.9173 12.5649 15.9299 12.5624 15.9452 12.5624H15.9477C16.1811 12.5323 16.4474 12.7154 16.4373 12.8935C16.4271 13.0591 16.1861 13.2046 15.9731 13.177V13.1795ZM17.7994 15.7532C17.6193 15.7657 17.4266 15.4973 17.457 15.2641C17.457 15.2415 17.4621 15.2164 17.4747 15.1863C17.5052 15.0885 17.5711 14.9856 17.6726 14.9505C17.6878 14.9405 17.7005 14.938 17.7132 14.9405C17.8629 14.9179 17.9948 15.0458 18.0531 15.1763V15.1838C18.0632 15.1963 18.0683 15.2089 18.0709 15.2239C18.1393 15.4522 17.977 15.7432 17.7969 15.7557L17.7994 15.7532ZM17.7462 17.9456C17.7309 17.9406 17.7157 17.9356 17.7005 17.9281C17.5711 17.8754 17.4443 17.75 17.4595 17.5994C17.4595 17.5919 17.4595 17.5819 17.4646 17.5693C17.4646 17.5643 17.4671 17.5593 17.4697 17.5543C17.5001 17.454 17.5889 17.3812 17.6802 17.3461C17.7107 17.331 17.7386 17.321 17.7639 17.321C18.0024 17.2784 18.2814 17.469 18.2712 17.6546C18.2636 17.8377 17.9745 18.0083 17.7436 17.9456H17.7462ZM18.1977 20.0603C18.1774 20.2058 17.9795 20.3462 17.7309 20.3186C17.7233 20.3186 17.7183 20.3161 17.7107 20.3136C17.5635 20.281 17.4595 20.1531 17.4595 20.0126V20.0026C17.4621 19.8571 17.5838 19.7592 17.698 19.7216C17.7183 19.7116 17.7386 19.7066 17.7563 19.7066C17.977 19.674 18.2205 19.8771 18.1951 20.0552L18.1977 20.0603ZM30.1046 7.56304C30.1147 7.41002 30.2289 7.22189 30.3988 7.21185C30.409 7.20934 30.4216 7.20934 30.4369 7.21185C30.4369 7.21185 30.4394 7.21185 30.4419 7.21185C30.551 7.2269 30.6373 7.31721 30.6854 7.40751C30.6981 7.42758 30.7057 7.44765 30.7083 7.4627V7.47022C30.7844 7.69097 30.6449 7.98195 30.4648 8.00453C30.2923 8.0246 30.0944 7.79884 30.102 7.57558C30.102 7.57056 30.102 7.56555 30.102 7.56053L30.1046 7.56304ZM27.9916 7.02873C28.164 7.02622 28.3391 7.26202 28.3137 7.47775C28.3137 7.48277 28.3137 7.49029 28.3137 7.49531C28.2909 7.64582 28.159 7.82643 27.9865 7.8189C27.9738 7.82141 27.9586 7.8189 27.9408 7.81138C27.8394 7.78629 27.7633 7.69348 27.7227 7.60317C27.7075 7.57558 27.6973 7.5505 27.6973 7.52792C27.6466 7.30467 27.8115 7.03124 27.9941 7.02622L27.9916 7.02873ZM25.2774 5.64155C25.3078 5.57382 25.4093 5.47348 25.5006 5.43083C25.5285 5.41578 25.5539 5.40826 25.5767 5.40826C25.8126 5.3606 26.0967 5.53117 26.0967 5.71178C26.0967 5.88989 25.8177 6.073 25.5792 6.02283C25.5691 6.02283 25.5615 6.02033 25.5513 6.01531C25.5437 6.01531 25.5387 6.01029 25.531 6.00778C25.3966 5.96012 25.2546 5.83721 25.2672 5.6867C25.2647 5.67667 25.2672 5.66161 25.2748 5.64406L25.2774 5.64155ZM22.8727 7.48528C22.8727 7.46521 22.8828 7.44012 22.9006 7.41755C22.9462 7.32473 23.0299 7.23694 23.1365 7.21938C23.1542 7.21436 23.1695 7.21185 23.1796 7.21687C23.3496 7.21938 23.4662 7.4025 23.4865 7.553C23.4865 7.55802 23.4865 7.56304 23.4865 7.56555C23.5043 7.78378 23.3216 8.01707 23.1517 8.00704C22.9691 7.997 22.8093 7.71104 22.8752 7.48778L22.8727 7.48528ZM23.6717 25.3632C23.6717 25.5262 23.4409 25.6868 23.2253 25.6717H23.2202C23.2202 25.6717 23.21 25.6717 23.205 25.6717C23.0299 25.6516 22.8422 25.5087 22.8498 25.3657C22.8574 25.2202 23.0604 25.1098 23.0807 25.0998C23.106 25.0772 23.1339 25.0647 23.1593 25.0647C23.3546 25.012 23.6692 25.175 23.6692 25.3632H23.6717ZM26.0942 25.3707C26.0942 25.5538 25.8177 25.7294 25.5843 25.6868C25.5589 25.6868 25.531 25.6767 25.5006 25.6617C25.5006 25.6617 25.5006 25.6617 25.4981 25.6617C25.4017 25.6241 25.3078 25.5513 25.2799 25.4485C25.2799 25.4485 25.2799 25.446 25.2799 25.4434C25.2723 25.4284 25.2723 25.4133 25.2723 25.4033C25.2622 25.2528 25.3941 25.1349 25.526 25.0847C25.5437 25.0747 25.5615 25.0697 25.5792 25.0672C25.8126 25.0145 26.0916 25.1901 26.0942 25.3732V25.3707ZM28.5014 27.1015C28.4887 27.2822 28.1945 27.4302 27.9687 27.37C27.9535 27.37 27.9383 27.3624 27.9256 27.3574C27.7861 27.3047 27.6593 27.1743 27.6745 27.0564C27.6897 26.941 27.8444 26.8607 27.9358 26.8131C27.9637 26.7955 27.9916 26.7805 28.0195 26.7729C28.0271 26.7729 28.0347 26.7704 28.0423 26.7679C28.2325 26.7303 28.5141 26.9184 28.5014 27.1015ZM30.7134 25.4159C30.7134 25.4284 30.7057 25.4434 30.7007 25.4585V25.4635C30.6499 25.5764 30.5383 25.6868 30.3963 25.6817H30.3887C30.2441 25.6717 30.1451 25.5488 30.1122 25.4284C30.1046 25.4108 30.102 25.3933 30.102 25.3782C30.0792 25.165 30.2771 24.9367 30.4622 24.9593C30.6372 24.9819 30.7666 25.2227 30.7134 25.4184V25.4159ZM32.0933 21.0862C32.0933 21.6531 32.0679 21.6782 31.4997 21.6782C28.3746 21.6782 25.2495 21.6782 22.1218 21.6782C21.5156 21.6782 21.4927 21.6531 21.4927 21.0762V16.4631C21.4927 14.8953 21.5004 13.3275 21.4851 11.7572C21.4826 11.3559 21.6094 11.1928 22.0381 11.1953C25.1937 11.2079 28.3492 11.2053 31.5073 11.1953C31.9335 11.1953 32.0983 11.3207 32.0958 11.7672C32.0806 14.8727 32.0882 17.9782 32.0882 21.0837L32.0933 21.0862ZM37.7017 20.3211C37.6789 20.3211 37.6535 20.3111 37.6231 20.2961C37.6231 20.2961 37.6231 20.2961 37.6206 20.2961C37.5318 20.2584 37.4405 20.1882 37.4126 20.0904C37.4049 20.0703 37.4024 20.0552 37.4049 20.0427C37.3948 19.8972 37.5318 19.7743 37.6662 19.7291C37.6738 19.7266 37.6789 19.7241 37.6865 19.7216C37.6967 19.7191 37.7043 19.7166 37.7119 19.7141C37.9529 19.6589 38.242 19.8495 38.2395 20.0302C38.237 20.2083 37.9402 20.3788 37.7017 20.3262V20.3211Z" fill="#E7342F"/>
<path d="M31.0355 12.2765H22.5607V20.6297H31.0355V12.2765Z" fill="#E7342F"/>
</g>
<defs>
<filter id="filter0_d_2_27" x="74.5087" y="5.06567" width="50.7249" height="40.82" filterUnits="userSpaceOnUse" color-interpolation-filters="sRGB">
<feFlood flood-opacity="0" result="BackgroundImageFix"/>
<feColorMatrix in="SourceAlpha" type="matrix" values="0 0 0 0 0 0 0 0 0 0 0 0 0 0 0 0 0 0 127 0" result="hardAlpha"/>
<feOffset dx="7" dy="7"/>
<feGaussianBlur stdDeviation="5"/>
<feColorMatrix type="matrix" values="0 0 0 0 0 0 0 0 0 0 0 0 0 0 0 0 0 0 0.5 0"/>
<feBlend mode="normal" in2="BackgroundImageFix" result="effect1_dropShadow_2_27"/>
<feBlend mode="normal" in="SourceGraphic" in2="effect1_dropShadow_2_27" result="shape"/>
</filter>
<filter id="filter1_d_2_27" x="109.962" y="5.04559" width="47.8743" height="40.8411" filterUnits="userSpaceOnUse" color-interpolation-filters="sRGB">
<feFlood flood-opacity="0" result="BackgroundImageFix"/>
<feColorMatrix in="SourceAlpha" type="matrix" values="0 0 0 0 0 0 0 0 0 0 0 0 0 0 0 0 0 0 127 0" result="hardAlpha"/>
<feOffset dx="7" dy="7"/>
<feGaussianBlur stdDeviation="5"/>
<feColorMatrix type="matrix" values="0 0 0 0 0 0 0 0 0 0 0 0 0 0 0 0 0 0 0.5 0"/>
<feBlend mode="normal" in2="BackgroundImageFix" result="effect1_dropShadow_2_27"/>
<feBlend mode="normal" in="SourceGraphic" in2="effect1_dropShadow_2_27" result="shape"/>
</filter>
<filter id="filter2_d_2_27" x="142.516" y="5.15253" width="43.7093" height="40.7601" filterUnits="userSpaceOnUse" color-interpolation-filters="sRGB">
<feFlood flood-opacity="0" result="BackgroundImageFix"/>
<feColorMatrix in="SourceAlpha" type="matrix" values="0 0 0 0 0 0 0 0 0 0 0 0 0 0 0 0 0 0 127 0" result="hardAlpha"/>
<feOffset dx="7" dy="7"/>
<feGaussianBlur stdDeviation="5"/>
<feColorMatrix type="matrix" values="0 0 0 0 0 0 0 0 0 0 0 0 0 0 0 0 0 0 0.5 0"/>
<feBlend mode="normal" in2="BackgroundImageFix" result="effect1_dropShadow_2_27"/>
<feBlend mode="normal" in="SourceGraphic" in2="effect1_dropShadow_2_27" result="shape"/>
</filter>
<filter id="filter3_d_2_27" x="179.555" y="5.01498" width="39.8592" height="40.9738" filterUnits="userSpaceOnUse" color-interpolation-filters="sRGB">
<feFlood flood-opacity="0" result="BackgroundImageFix"/>
<feColorMatrix in="SourceAlpha" type="matrix" values="0 0 0 0 0 0 0 0 0 0 0 0 0 0 0 0 0 0 127 0" result="hardAlpha"/>
<feOffset dx="7" dy="7"/>
<feGaussianBlur stdDeviation="5"/>
<feColorMatrix type="matrix" values="0 0 0 0 0 0 0 0 0 0 0 0 0 0 0 0 0 0 0.5 0"/>
<feBlend mode="normal" in2="BackgroundImageFix" result="effect1_dropShadow_2_27"/>
<feBlend mode="normal" in="SourceGraphic" in2="effect1_dropShadow_2_27" result="shape"/>
</filter>
<filter id="filter4_d_2_27" x="170.9" y="5.12244" width="23.4118" height="40.7526" filterUnits="userSpaceOnUse" color-interpolation-filters="sRGB">
<feFlood flood-opacity="0" result="BackgroundImageFix"/>
<feColorMatrix in="SourceAlpha" type="matrix" values="0 0 0 0 0 0 0 0 0 0 0 0 0 0 0 0 0 0 127 0" result="hardAlpha"/>
<feOffset dx="7" dy="7"/>
<feGaussianBlur stdDeviation="5"/>
<feColorMatrix type="matrix" values="0 0 0 0 0 0 0 0 0 0 0 0 0 0 0 0 0 0 0.5 0"/>
<feBlend mode="normal" in2="BackgroundImageFix" result="effect1_dropShadow_2_27"/>
<feBlend mode="normal" in="SourceGraphic" in2="effect1_dropShadow_2_27" result="shape"/>
</filter>
<clipPath id="clip0_2_27">
<rect width="208" height="37" fill="white"/>
</clipPath>
</defs>
</svg>
